<mxfile host="app.diagrams.net" modified="2023-10-23T10:25:59.598Z" agent="Mozilla/5.0 (Windows NT 10.0; Win64; x64) AppleWebKit/537.36 (KHTML, like Gecko) Chrome/117.0.0.0 Safari/537.36 Edg/117.0.2045.47" etag="zwjObZhc86fA1ME4C-vr" version="22.0.6" type="github">
  <diagram name="Page-1" id="Xtkz2V2qiTChrQ2ADpfk">
    <mxGraphModel dx="1184" dy="763" grid="1" gridSize="10" guides="1" tooltips="1" connect="1" arrows="1" fold="1" page="1" pageScale="1" pageWidth="850" pageHeight="1100" math="0" shadow="0">
      <root>
        <mxCell id="0" />
        <mxCell id="1" parent="0" />
        <mxCell id="QVoLoS6mU9tvlEfIgqkD-1" value="互动性" style="rounded=0;whiteSpace=wrap;html=1;" vertex="1" parent="1">
          <mxGeometry x="160" y="210" width="120" height="50" as="geometry" />
        </mxCell>
        <mxCell id="QVoLoS6mU9tvlEfIgqkD-2" value="娱乐性" style="rounded=0;whiteSpace=wrap;html=1;" vertex="1" parent="1">
          <mxGeometry x="160" y="410" width="120" height="60" as="geometry" />
        </mxCell>
        <mxCell id="QVoLoS6mU9tvlEfIgqkD-3" value="可视性" style="rounded=0;whiteSpace=wrap;html=1;" vertex="1" parent="1">
          <mxGeometry x="160" y="340" width="120" height="60" as="geometry" />
        </mxCell>
        <mxCell id="QVoLoS6mU9tvlEfIgqkD-4" value="真实性" style="rounded=0;whiteSpace=wrap;html=1;" vertex="1" parent="1">
          <mxGeometry x="160" y="270" width="120" height="60" as="geometry" />
        </mxCell>
        <mxCell id="QVoLoS6mU9tvlEfIgqkD-5" value="刺激（S）" style="rounded=1;whiteSpace=wrap;html=1;" vertex="1" parent="1">
          <mxGeometry x="160" y="490" width="200" height="30" as="geometry" />
        </mxCell>
        <mxCell id="QVoLoS6mU9tvlEfIgqkD-6" value="反应（R）" style="rounded=1;whiteSpace=wrap;html=1;" vertex="1" parent="1">
          <mxGeometry x="650" y="490" width="200" height="30" as="geometry" />
        </mxCell>
        <mxCell id="QVoLoS6mU9tvlEfIgqkD-7" value="机体（O）" style="rounded=1;whiteSpace=wrap;html=1;" vertex="1" parent="1">
          <mxGeometry x="400" y="490" width="200" height="30" as="geometry" />
        </mxCell>
        <mxCell id="QVoLoS6mU9tvlEfIgqkD-8" value="感知信任" style="rounded=0;whiteSpace=wrap;html=1;" vertex="1" parent="1">
          <mxGeometry x="430" y="250" width="120" height="50" as="geometry" />
        </mxCell>
        <mxCell id="QVoLoS6mU9tvlEfIgqkD-9" value="感知价值" style="rounded=0;whiteSpace=wrap;html=1;" vertex="1" parent="1">
          <mxGeometry x="430" y="370" width="120" height="50" as="geometry" />
        </mxCell>
        <mxCell id="QVoLoS6mU9tvlEfIgqkD-10" value="购买行为" style="rounded=0;whiteSpace=wrap;html=1;" vertex="1" parent="1">
          <mxGeometry x="680" y="310" width="120" height="50" as="geometry" />
        </mxCell>
        <mxCell id="QVoLoS6mU9tvlEfIgqkD-11" value="" style="endArrow=classic;html=1;rounded=0;exitX=1;exitY=0.5;exitDx=0;exitDy=0;entryX=0;entryY=0.5;entryDx=0;entryDy=0;" edge="1" parent="1" source="QVoLoS6mU9tvlEfIgqkD-1" target="QVoLoS6mU9tvlEfIgqkD-8">
          <mxGeometry width="50" height="50" relative="1" as="geometry">
            <mxPoint x="400" y="420" as="sourcePoint" />
            <mxPoint x="450" y="370" as="targetPoint" />
          </mxGeometry>
        </mxCell>
        <mxCell id="QVoLoS6mU9tvlEfIgqkD-28" value="h1a" style="edgeLabel;html=1;align=center;verticalAlign=middle;resizable=0;points=[];" vertex="1" connectable="0" parent="QVoLoS6mU9tvlEfIgqkD-11">
          <mxGeometry x="-0.4519" y="-2" relative="1" as="geometry">
            <mxPoint as="offset" />
          </mxGeometry>
        </mxCell>
        <mxCell id="QVoLoS6mU9tvlEfIgqkD-12" value="" style="endArrow=classic;html=1;rounded=0;" edge="1" parent="1">
          <mxGeometry width="50" height="50" relative="1" as="geometry">
            <mxPoint x="280" y="300" as="sourcePoint" />
            <mxPoint x="430" y="280" as="targetPoint" />
          </mxGeometry>
        </mxCell>
        <mxCell id="QVoLoS6mU9tvlEfIgqkD-31" value="H2a" style="edgeLabel;html=1;align=center;verticalAlign=middle;resizable=0;points=[];" vertex="1" connectable="0" parent="QVoLoS6mU9tvlEfIgqkD-12">
          <mxGeometry x="0.1098" y="1" relative="1" as="geometry">
            <mxPoint as="offset" />
          </mxGeometry>
        </mxCell>
        <mxCell id="QVoLoS6mU9tvlEfIgqkD-13" value="" style="endArrow=classic;html=1;rounded=0;exitX=1;exitY=0.5;exitDx=0;exitDy=0;entryX=0;entryY=0.5;entryDx=0;entryDy=0;" edge="1" parent="1" target="QVoLoS6mU9tvlEfIgqkD-9">
          <mxGeometry width="50" height="50" relative="1" as="geometry">
            <mxPoint x="280" y="240" as="sourcePoint" />
            <mxPoint x="410" y="280" as="targetPoint" />
          </mxGeometry>
        </mxCell>
        <mxCell id="QVoLoS6mU9tvlEfIgqkD-29" value="h1b" style="edgeLabel;html=1;align=center;verticalAlign=middle;resizable=0;points=[];" vertex="1" connectable="0" parent="QVoLoS6mU9tvlEfIgqkD-13">
          <mxGeometry x="-0.405" y="2" relative="1" as="geometry">
            <mxPoint x="-10" y="-10" as="offset" />
          </mxGeometry>
        </mxCell>
        <mxCell id="QVoLoS6mU9tvlEfIgqkD-14" value="" style="endArrow=classic;html=1;rounded=0;exitX=1;exitY=0.5;exitDx=0;exitDy=0;entryX=0;entryY=0.5;entryDx=0;entryDy=0;" edge="1" parent="1" source="QVoLoS6mU9tvlEfIgqkD-4" target="QVoLoS6mU9tvlEfIgqkD-9">
          <mxGeometry width="50" height="50" relative="1" as="geometry">
            <mxPoint x="310" y="265" as="sourcePoint" />
            <mxPoint x="440" y="305" as="targetPoint" />
          </mxGeometry>
        </mxCell>
        <mxCell id="QVoLoS6mU9tvlEfIgqkD-32" value="H2b" style="edgeLabel;html=1;align=center;verticalAlign=middle;resizable=0;points=[];" vertex="1" connectable="0" parent="QVoLoS6mU9tvlEfIgqkD-14">
          <mxGeometry x="-0.3963" relative="1" as="geometry">
            <mxPoint x="-1" as="offset" />
          </mxGeometry>
        </mxCell>
        <mxCell id="QVoLoS6mU9tvlEfIgqkD-15" value="" style="endArrow=classic;html=1;rounded=0;exitX=1;exitY=0.5;exitDx=0;exitDy=0;entryX=0;entryY=0.5;entryDx=0;entryDy=0;" edge="1" parent="1" source="QVoLoS6mU9tvlEfIgqkD-8" target="QVoLoS6mU9tvlEfIgqkD-10">
          <mxGeometry width="50" height="50" relative="1" as="geometry">
            <mxPoint x="400" y="420" as="sourcePoint" />
            <mxPoint x="450" y="370" as="targetPoint" />
          </mxGeometry>
        </mxCell>
        <mxCell id="QVoLoS6mU9tvlEfIgqkD-37" value="H5" style="edgeLabel;html=1;align=center;verticalAlign=middle;resizable=0;points=[];" vertex="1" connectable="0" parent="QVoLoS6mU9tvlEfIgqkD-15">
          <mxGeometry x="0.0067" y="-3" relative="1" as="geometry">
            <mxPoint as="offset" />
          </mxGeometry>
        </mxCell>
        <mxCell id="QVoLoS6mU9tvlEfIgqkD-16" value="" style="endArrow=classic;html=1;rounded=0;exitX=1;exitY=0.5;exitDx=0;exitDy=0;entryX=0;entryY=0.5;entryDx=0;entryDy=0;" edge="1" parent="1" source="QVoLoS6mU9tvlEfIgqkD-9" target="QVoLoS6mU9tvlEfIgqkD-10">
          <mxGeometry width="50" height="50" relative="1" as="geometry">
            <mxPoint x="540" y="285" as="sourcePoint" />
            <mxPoint x="630" y="330" as="targetPoint" />
          </mxGeometry>
        </mxCell>
        <mxCell id="QVoLoS6mU9tvlEfIgqkD-38" value="H6" style="edgeLabel;html=1;align=center;verticalAlign=middle;resizable=0;points=[];" vertex="1" connectable="0" parent="QVoLoS6mU9tvlEfIgqkD-16">
          <mxGeometry x="-0.16" y="-1" relative="1" as="geometry">
            <mxPoint as="offset" />
          </mxGeometry>
        </mxCell>
        <mxCell id="QVoLoS6mU9tvlEfIgqkD-17" value="" style="endArrow=classic;html=1;rounded=0;exitX=1;exitY=0.5;exitDx=0;exitDy=0;entryX=0;entryY=0.5;entryDx=0;entryDy=0;" edge="1" parent="1" source="QVoLoS6mU9tvlEfIgqkD-3" target="QVoLoS6mU9tvlEfIgqkD-9">
          <mxGeometry width="50" height="50" relative="1" as="geometry">
            <mxPoint x="290" y="310" as="sourcePoint" />
            <mxPoint x="420" y="405" as="targetPoint" />
          </mxGeometry>
        </mxCell>
        <mxCell id="QVoLoS6mU9tvlEfIgqkD-34" value="H3b" style="edgeLabel;html=1;align=center;verticalAlign=middle;resizable=0;points=[];" vertex="1" connectable="0" parent="QVoLoS6mU9tvlEfIgqkD-17">
          <mxGeometry x="-0.5087" y="-5" relative="1" as="geometry">
            <mxPoint as="offset" />
          </mxGeometry>
        </mxCell>
        <mxCell id="QVoLoS6mU9tvlEfIgqkD-19" value="" style="endArrow=classic;html=1;rounded=0;entryX=0;entryY=0.75;entryDx=0;entryDy=0;" edge="1" parent="1" target="QVoLoS6mU9tvlEfIgqkD-8">
          <mxGeometry width="50" height="50" relative="1" as="geometry">
            <mxPoint x="280" y="370" as="sourcePoint" />
            <mxPoint x="420" y="405" as="targetPoint" />
          </mxGeometry>
        </mxCell>
        <mxCell id="QVoLoS6mU9tvlEfIgqkD-33" value="H3a" style="edgeLabel;html=1;align=center;verticalAlign=middle;resizable=0;points=[];" vertex="1" connectable="0" parent="QVoLoS6mU9tvlEfIgqkD-19">
          <mxGeometry x="-0.5417" y="-2" relative="1" as="geometry">
            <mxPoint as="offset" />
          </mxGeometry>
        </mxCell>
        <mxCell id="QVoLoS6mU9tvlEfIgqkD-20" value="" style="endArrow=classic;html=1;rounded=0;exitX=1;exitY=0.5;exitDx=0;exitDy=0;" edge="1" parent="1">
          <mxGeometry width="50" height="50" relative="1" as="geometry">
            <mxPoint x="280" y="442.5" as="sourcePoint" />
            <mxPoint x="430" y="395" as="targetPoint" />
          </mxGeometry>
        </mxCell>
        <mxCell id="QVoLoS6mU9tvlEfIgqkD-36" value="H4b" style="edgeLabel;html=1;align=center;verticalAlign=middle;resizable=0;points=[];" vertex="1" connectable="0" parent="QVoLoS6mU9tvlEfIgqkD-20">
          <mxGeometry x="-0.0679" y="2" relative="1" as="geometry">
            <mxPoint y="-1" as="offset" />
          </mxGeometry>
        </mxCell>
        <mxCell id="QVoLoS6mU9tvlEfIgqkD-27" value="" style="endArrow=classic;html=1;rounded=0;exitX=1;exitY=0.5;exitDx=0;exitDy=0;" edge="1" parent="1" source="QVoLoS6mU9tvlEfIgqkD-2">
          <mxGeometry width="50" height="50" relative="1" as="geometry">
            <mxPoint x="280" y="430" as="sourcePoint" />
            <mxPoint x="430" y="290" as="targetPoint" />
          </mxGeometry>
        </mxCell>
        <mxCell id="QVoLoS6mU9tvlEfIgqkD-35" value="H4a" style="edgeLabel;html=1;align=center;verticalAlign=middle;resizable=0;points=[];" vertex="1" connectable="0" parent="QVoLoS6mU9tvlEfIgqkD-27">
          <mxGeometry x="-0.5487" y="2" relative="1" as="geometry">
            <mxPoint as="offset" />
          </mxGeometry>
        </mxCell>
        <mxCell id="QVoLoS6mU9tvlEfIgqkD-40" value="" style="rounded=0;whiteSpace=wrap;html=1;fillColor=none;dashed=1;" vertex="1" parent="1">
          <mxGeometry x="130" y="190" width="240" height="350" as="geometry" />
        </mxCell>
        <mxCell id="QVoLoS6mU9tvlEfIgqkD-41" style="edgeStyle=orthogonalEdgeStyle;rounded=0;orthogonalLoop=1;jettySize=auto;html=1;exitX=0.75;exitY=0;exitDx=0;exitDy=0;entryX=0.92;entryY=0.067;entryDx=0;entryDy=0;entryPerimeter=0;" edge="1" parent="1" source="QVoLoS6mU9tvlEfIgqkD-7" target="QVoLoS6mU9tvlEfIgqkD-7">
          <mxGeometry relative="1" as="geometry" />
        </mxCell>
        <mxCell id="QVoLoS6mU9tvlEfIgqkD-42" value="" style="rounded=0;whiteSpace=wrap;html=1;fillColor=none;dashed=1;" vertex="1" parent="1">
          <mxGeometry x="380" y="190" width="240" height="350" as="geometry" />
        </mxCell>
        <mxCell id="QVoLoS6mU9tvlEfIgqkD-43" value="" style="rounded=0;whiteSpace=wrap;html=1;fillColor=none;dashed=1;" vertex="1" parent="1">
          <mxGeometry x="630" y="190" width="240" height="350" as="geometry" />
        </mxCell>
      </root>
    </mxGraphModel>
  </diagram>
</mxfile>
